# xmcd
#
# Track frame offsets:
#   150
#   20770
#   46192
#
# Disc length: 626 seconds
#
# Revision: 0
# Processed by: cddbd v1.5.1PL0 Copyright (c) Steve Scherf et al.
# Submitted via: uFREEDB ActiveX Control 1.5
#
DISCID=1d027003
DTITLE=Puff Daddy - Satisfy You
DYEAR=1900
DGENRE=Hip Hop
TTITLE0=Radio Mix
TTITLE1=Instrumental
TTITLE2=Call Out Research Hook
EXTD=
EXTT0=
EXTT1=
EXTT2=
PLAYORDER=
